<svg xmlns="http://www.w3.org/2000/svg" xmlns:xlink="http://www.w3.org/1999/xlink" viewBox="0 0 63.4 20.5"><defs><style>.a,.e{fill:none;}.b{fill:#094c6e;}.b,.e{stroke:#fff;stroke-linecap:round;stroke-linejoin:round;}.c{clip-path:url(#a);}.d{fill:#fff;}.e{stroke-width:2px;}</style><clipPath id="a"><rect class="a" x="21.8" y="0.2" width="46.7" height="19.94"/></clipPath></defs><title>BACKb</title><path class="b" d="M0.5,0.5V20H20V0.5H0.5Z"/><g class="c"><path class="d" d="M29.6,14.6V5.5H33a4.3,4.3,0,0,1,1.7.3,2.2,2.2,0,0,1,1,.9,2.2,2.2,0,0,1,.4,1.2A2.1,2.1,0,0,1,35.8,9a2.3,2.3,0,0,1-1,.8,2.4,2.4,0,0,1,1.3.8,2.2,2.2,0,0,1,.4,1.4,2.7,2.7,0,0,1-.3,1.2,2.3,2.3,0,0,1-.7.8l-1,.5-1.5.2H29.6Zm1.2-5.3h3.1A1.2,1.2,0,0,0,34.8,8a1.5,1.5,0,0,0-.2-0.8A1.1,1.1,0,0,0,34,6.7H30.8V9.3Zm0,4.2h3.1l0.7-.2,0.5-.5a1.6,1.6,0,0,0,.2-0.8,1.5,1.5,0,0,0-.3-0.9,1.4,1.4,0,0,0-.7-0.5L33,10.4H30.8v3.1Z"/><path class="d" d="M37.1,14.6l3.5-9.1h1.3l3.7,9.1H44.3l-1.1-2.7H39.4l-1,2.8H37.1Zm2.7-3.7h3.1l-1-2.5L41.3,6.5a11.6,11.6,0,0,1-.5,1.7Z"/><path class="d" d="M53.2,11.4l1.2,0.3A4.1,4.1,0,0,1,53,14a3.8,3.8,0,0,1-2.4.8,4.3,4.3,0,0,1-2.4-.6,3.7,3.7,0,0,1-1.4-1.7,6.2,6.2,0,0,1-.5-2.4,5.4,5.4,0,0,1,.5-2.5,3.7,3.7,0,0,1,1.6-1.7,4.5,4.5,0,0,1,2.2-.6,3.8,3.8,0,0,1,2.3.7,3.6,3.6,0,0,1,1.3,2L53,8.3a2.8,2.8,0,0,0-.9-1.5,2.5,2.5,0,0,0-1.5-.5,3,3,0,0,0-1.8.5,2.7,2.7,0,0,0-1,1.4,5.4,5.4,0,0,0-.3,1.8,5.6,5.6,0,0,0,.3,2,2.5,2.5,0,0,0,1.1,1.3,3,3,0,0,0,1.6.4,2.6,2.6,0,0,0,1.7-.6A3,3,0,0,0,53.2,11.4Z"/><path class="d" d="M55.8,14.6V5.5H57V10l4.5-4.5h1.6L59.4,9.2l4,5.4H61.8L58.5,10,57,11.5v3.2H55.8Z"/></g><path class="e" d="M12.7,5.1L7.3,10.4l5.4,5.3"/></svg>