<svg xmlns="http://www.w3.org/2000/svg" xmlns:xlink="http://www.w3.org/1999/xlink" viewBox="0 0 57.9 20.3"><defs><style>.a,.e{fill:none;}.b{clip-path:url(#a);}.c{fill:#fff;}.d{fill:#094c6e;}.d,.e{stroke:#fff;stroke-linecap:round;stroke-linejoin:round;}.e{stroke-width:2px;}</style><clipPath id="a"><rect class="a" x="-10.6" y="1.1" width="51" height="19.7"/></clipPath></defs><title>NEXTb</title><g class="b"><path class="c" d="M0,15.4v-9H1.2l4.7,7.1V6.3H7v9H5.9L1.2,8.2v7.1H0Z"/><path class="c" d="M9.1,15.4v-9h6.5V7.5H10.3v2.8h5v1.1h-5v3.1h5.6v1.1H9.1V15.4Z"/><path class="c" d="M16.6,15.4l3.5-4.7L17,6.4h1.4L20,8.7l0.7,1.1,0.7-1,1.8-2.4h1.3l-3.2,4.3,3.6,4.7H23.4l-2.3-3.2-0.4-.6-0.4.7L18,15.4H16.6Z"/><path class="c" d="M28.2,15.4v-8h-3V6.3h7.2V7.4h-3v8H28.2Z"/></g><path class="d" d="M57.4,0.5V19.8H38.2V0.5H57.4Z"/><path class="e" d="M45.3,5.1l5.3,5.3-5.3,5.3"/></svg>