<svg id="Layer_1" data-name="Layer 1" xmlns="http://www.w3.org/2000/svg" xmlns:xlink="http://www.w3.org/1999/xlink" viewBox="0 0 1593 55.21">
  <defs>
    <linearGradient id="linear-gradient" x1="252.18" y1="28.6" x2="1317.75" y2="28.6" gradientTransform="translate(-377 -1) scale(1.49 1)" gradientUnits="userSpaceOnUse">
      <stop offset="0" stop-color="#fff" stop-opacity="0"/>
      <stop offset="0" stop-color="#f7f7f7" stop-opacity="0.09"/>
      <stop offset="0.01" stop-color="#ebebeb" stop-opacity="0.22"/>
      <stop offset="0.02" stop-color="#e1e1e1" stop-opacity="0.32"/>
      <stop offset="0.03" stop-color="#dadada" stop-opacity="0.4"/>
      <stop offset="0.04" stop-color="#d5d5d5" stop-opacity="0.46"/>
      <stop offset="0.05" stop-color="#d2d2d2" stop-opacity="0.49"/>
      <stop offset="0.09" stop-color="#d1d1d1" stop-opacity="0.5"/>
      <stop offset="0.5" stop-color="#d2d2d2" stop-opacity="0.49"/>
      <stop offset="0.64" stop-color="#d5d5d5" stop-opacity="0.46"/>
      <stop offset="0.75" stop-color="#dadada" stop-opacity="0.4"/>
      <stop offset="0.83" stop-color="#e1e1e1" stop-opacity="0.32"/>
      <stop offset="0.9" stop-color="#ebebeb" stop-opacity="0.22"/>
      <stop offset="0.97" stop-color="#f7f7f7" stop-opacity="0.09"/>
      <stop offset="1" stop-color="#fff" stop-opacity="0"/>
    </linearGradient>
    <linearGradient id="linear-gradient-2" x1="5.04" y1="37.16" x2="46.89" y2="37.16" gradientTransform="matrix(0.99, 0, 0, -1, 11.41, 65)" gradientUnits="userSpaceOnUse">
      <stop offset="0" stop-color="#ccc"/>
      <stop offset="1" stop-color="#fff"/>
    </linearGradient>
    <linearGradient id="linear-gradient-3" x1="1542.86" y1="37.16" x2="1584.71" y2="37.16" xlink:href="#linear-gradient-2"/>
    <linearGradient id="linear-gradient-4" x1="5.04" y1="40.16" x2="40.39" y2="40.16" gradientTransform="matrix(0.99, 0, 0, -1, 63.61, 68)" xlink:href="#linear-gradient-2"/>
    <linearGradient id="linear-gradient-5" x1="765.61" y1="531.09" x2="645.22" y2="-830.04" gradientTransform="matrix(0.93, 0, 0, -1, 72.3, 78.25)" xlink:href="#linear-gradient-2"/>
  </defs>
  <title>player_control_bg</title>
  <g>
    <path d="M1200.81,26.76c0,2.78-1.69,4.25-3.75,4.25s-3.64-1.65-3.64-4.1,1.6-4.24,3.76-4.24S1200.81,24.36,1200.81,26.76Zm-6.27.13c0,1.73.94,3.27,2.58,3.27s2.59-1.52,2.59-3.36c0-1.6-.84-3.28-2.58-3.28S1194.54,25.11,1194.54,26.89Z" transform="translate(0 -1)" fill="#fff"/>
    <path d="M1202.14,27c0-.74,0-1.34-.05-1.89h1v1h0a2.28,2.28,0,0,1,2.06-1.12c1.4,0,2.46,1.18,2.46,3,0,2.08-1.27,3.11-2.64,3.11a2,2,0,0,1-1.79-.91h0V33.3h-1Zm1,1.55a1.55,1.55,0,0,0,0,.43,1.63,1.63,0,0,0,1.58,1.24c1.12,0,1.76-.91,1.76-2.25,0-1.16-.61-2.15-1.72-2.15a1.69,1.69,0,0,0-1.6,1.3,2,2,0,0,0-.07.43Z" transform="translate(0 -1)" fill="#fff"/>
    <path d="M1210.24,23.41v1.67h1.51v.8h-1.51V29c0,.72.2,1.13.79,1.13a2.48,2.48,0,0,0,.61-.07v.79a2.72,2.72,0,0,1-.94.14,1.44,1.44,0,0,1-1.14-.44,2.14,2.14,0,0,1-.41-1.51V25.88h-.9v-.8h.9V23.69Z" transform="translate(0 -1)" fill="#fff"/>
    <path d="M1214.11,23.45a.62.62,0,0,1-.6.64h-.07a.63.63,0,0,1-.64-.62h0a.64.64,0,0,1,.62-.66h0a.62.62,0,0,1,.65.59h0Zm-1.17,7.43v-5.8h1v5.8Z" transform="translate(0 -1)" fill="#fff"/>
    <path d="M1215.74,26.65V25.08h.92V26h0a2,2,0,0,1,1.83-1.06,1.71,1.71,0,0,1,1.64,1.16h0a2.27,2.27,0,0,1,.65-.76,2,2,0,0,1,1.28-.4c.77,0,1.91.5,1.91,2.51v3.42h-1V27.6c0-1.12-.41-1.79-1.26-1.79a1.37,1.37,0,0,0-1.25,1,1.89,1.89,0,0,0-.08.53v3.58h-1V27.4c0-.92-.41-1.59-1.21-1.59a1.47,1.47,0,0,0-1.31,1.05,1.53,1.53,0,0,0-.08.52v3.5h-1Z" transform="translate(0 -1)" fill="#fff"/>
    <path d="M1226.93,23.45a.62.62,0,0,1-.6.64h-.08a.62.62,0,0,1-.63-.61h0a.64.64,0,0,1,.62-.66h0a.63.63,0,0,1,.65.61h0Zm-1.18,7.43v-5.8h1.06v5.8Z" transform="translate(0 -1)" fill="#fff"/>
    <path d="M1227.9,30.27l2.63-3.42c.25-.31.49-.59.75-.9h-3.14V25.1h4.42v.66L1230,29.11c-.24.32-.48.61-.74.91h3.39v.84h-4.71Z" transform="translate(0 -1)" fill="#fff"/>
    <path d="M1234.2,28.17a1.86,1.86,0,0,0,1.71,2h.29a4,4,0,0,0,1.61-.3l.18.75a4.73,4.73,0,0,1-1.93.36,2.69,2.69,0,0,1-2.86-2.5,2.94,2.94,0,0,1,0-.42c0-1.76,1-3.13,2.72-3.13a2.46,2.46,0,0,1,2.42,2.48v.25a4,4,0,0,1,0,.49Zm3.09-.75a1.5,1.5,0,0,0-1.25-1.7h-.21a1.74,1.74,0,0,0-1.62,1.72Z" transform="translate(0 -1)" fill="#fff"/>
    <path d="M1244.64,22.37v8.5h-.94v-1h0a2.15,2.15,0,0,1-2,1.13c-1.41,0-2.49-1.18-2.49-3a2.84,2.84,0,0,1,2.61-3.11,2,2,0,0,1,1.75.88h0v-3.4Zm-1.06,5.07a1.62,1.62,0,0,0,0-.44,1.53,1.53,0,0,0-1.52-1.23c-1.09,0-1.74,1-1.74,2.25s.58,2.14,1.72,2.14a1.67,1.67,0,0,0,1.59-1.71Z" transform="translate(0 -1)" fill="#fff"/>
    <path d="M1249,30.88v-5h-.81v-.8h.81V24.8a2.75,2.75,0,0,1,.67-2,2.08,2.08,0,0,1,1.42-.54,2.52,2.52,0,0,1,.9.17l-.15.82a1.54,1.54,0,0,0-.67-.13c-.9,0-1.12.79-1.12,1.68v.31h1.4v.8h-1.4v5Z" transform="translate(0 -1)" fill="#fff"/>
    <path d="M1257.54,27.93A2.82,2.82,0,0,1,1255,31h-.32a2.77,2.77,0,0,1-2.8-2.72V28a2.83,2.83,0,0,1,2.57-3.07h.31a2.75,2.75,0,0,1,2.81,2.69h0C1257.55,27.72,1257.55,27.83,1257.54,27.93Zm-4.61.06c0,1.27.73,2.23,1.76,2.23s1.77-.94,1.77-2.25c0-1-.5-2.23-1.74-2.23s-1.79,1.15-1.79,2.26Z" transform="translate(0 -1)" fill="#fff"/>
    <path d="M1258.87,26.89V25.08h.93v1.14h0a1.73,1.73,0,0,1,1.61-1.27h.3v1a1.09,1.09,0,0,0-.36,0A1.48,1.48,0,0,0,1260,27.3a4,4,0,0,0,0,.49v3.09h-1Z" transform="translate(0 -1)" fill="#fff"/>
  </g>
  <polyline points="1593 55.21 1593 0 0 0 0 55.21" fill="url(#linear-gradient)"/>
  <g id="Layer2_1_FILL" data-name="Layer2 1 FILL">
    <path d="M85.3,33.07v-8.7l-4.65,4.5Z" transform="translate(0 -1)" fill="#4d4d4d"/>
  </g>
  <g id="Layer2_2_FILL" data-name="Layer2 2 FILL">
    <path d="M92.3,33.07v-8.7l-4.65,4.5Z" transform="translate(0 -1)" fill="#4d4d4d"/>
  </g>
  <g>
    <g id="plausebg_0_Layer0_0_FILL" data-name="plausebg 0 Layer0 0 FILL">
      <path d="M57.87,43.87v-32c0-3.24-1.6-4.85-4.8-4.85H21.21C18,7,16.4,8.58,16.4,11.82V43.87q0,4.85,4.81,4.85H53.07Q57.87,48.72,57.87,43.87Z" transform="translate(0 -1)" fill="url(#linear-gradient-2)"/>
    </g>
    <path id="plausebg_0_Layer0_0_1_STROKES" data-name="plausebg 0 Layer0 0 1 STROKES" d="M21.21,7H53.07c3.2,0,4.8,1.61,4.8,4.85V43.87q0,4.85-4.8,4.85H21.21q-4.82,0-4.81-4.85v-32C16.4,8.58,18,7,21.21,7Z" transform="translate(0 -1)" fill="none" stroke="gray" stroke-linecap="round" stroke-linejoin="round" stroke-width="1.5"/>
  </g>
  <g>
    <g id="plausebg_0_Layer0_0_FILL-2" data-name="plausebg 0 Layer0 0 FILL">
      <path d="M1581.87,43.87v-32c0-3.24-1.6-4.85-4.8-4.85h-31.86c-3.21,0-4.81,1.61-4.81,4.85V43.87q0,4.85,4.81,4.85h31.86Q1581.87,48.72,1581.87,43.87Z" transform="translate(0 -1)" fill="url(#linear-gradient-3)"/>
    </g>
    <path id="plausebg_0_Layer0_0_1_STROKES-2" data-name="plausebg 0 Layer0 0 1 STROKES" d="M1545.21,7h31.86c3.2,0,4.8,1.61,4.8,4.85V43.87q0,4.85-4.8,4.85h-31.86q-4.82,0-4.81-4.85v-32C1540.4,8.58,1542,7,1545.21,7Z" transform="translate(0 -1)" fill="none" stroke="gray" stroke-linecap="round" stroke-linejoin="round" stroke-width="1.5"/>
  </g>
  <g>
    <g id="forrewbg_0_Layer0_0_FILL" data-name="forrewbg 0 Layer0 0 FILL">
      <path d="M73.41,10c-3.21,0-4.81,1.61-4.81,4.85V40.87q0,4.85,4.81,4.85H98.83q4.8,0,4.8-4.85v-26c0-3.24-1.6-4.85-4.8-4.85Z" transform="translate(0 -1)" fill="url(#linear-gradient-4)"/>
    </g>
    <path id="forrewbg_0_Layer0_0_1_STROKES" data-name="forrewbg 0 Layer0 0 1 STROKES" d="M73.41,10H98.83c3.2,0,4.8,1.61,4.8,4.85V40.87q0,4.85-4.8,4.85H73.41q-4.81,0-4.81-4.85v-26C68.6,11.58,70.2,10,73.41,10Z" transform="translate(0 -1)" fill="none" stroke="gray" stroke-linecap="round" stroke-linejoin="round" stroke-width="1.5"/>
  </g>
  <g>
    <g id="trackbarbg_0_Layer0_0_FILL" data-name="trackbarbg 0 Layer0 0 FILL">
      <path d="M1369,36.22q4.5,0,4.5-4.85v-6.3c0-3.24-1.5-4.85-4.5-4.85H116.25c-3,0-4.5,1.61-4.5,4.85v6.3q0,4.85,4.5,4.85Z" transform="translate(0 -1)" fill="url(#linear-gradient-5)"/>
    </g>
    <path id="trackbarbg_0_Layer0_0_1_STROKES" data-name="trackbarbg 0 Layer0 0 1 STROKES" d="M1369,20.22c3,0,4.5,1.61,4.5,4.85v6.3q0,4.85-4.5,4.85H116.25q-4.5,0-4.5-4.85v-6.3c0-3.24,1.5-4.85,4.5-4.85Z" transform="translate(0 -1)" fill="none" stroke="gray" stroke-linecap="round" stroke-linejoin="round" stroke-width="1.5"/>
  </g>
  <g>
    <g id="Layer1_3_FILL" data-name="Layer1 3 FILL">
      <path d="M83.57,34.46V21.6l-6.81,6.65Z" transform="translate(0 -1)" fill="#4d4d4d"/>
    </g>
    <path id="Layer1_3_1_STROKES" data-name="Layer1 3 1 STROKES" d="M83.54,34.43l-6.81-6.21,6.81-6.66Z" transform="translate(0 -1)" fill="none" stroke="#4d4d4d" stroke-miterlimit="10" stroke-width="2"/>
  </g>
  <g>
    <g id="Layer1_4_FILL" data-name="Layer1 4 FILL">
      <path d="M93.83,34.46V21.6L87,28.25Z" transform="translate(0 -1)" fill="#4d4d4d"/>
    </g>
    <path id="Layer1_4_1_STROKES" data-name="Layer1 4 1 STROKES" d="M93.8,34.43,87,28.22l6.81-6.66Z" transform="translate(0 -1)" fill="none" stroke="#4d4d4d" stroke-miterlimit="10" stroke-width="2"/>
  </g>
  <g>
    <path id="Layer0_0_1_STROKES" data-name="Layer0 0 1 STROKES" d="M1365.3,28.47H121.5" transform="translate(0 -1)" fill="none" stroke="#fff" stroke-linecap="round" stroke-linejoin="round" stroke-width="0.5"/>
    <path id="Layer0_0_1_STROKES-2" data-name="Layer0 0 1 STROKES" d="M1365.3,28H121.5" transform="translate(0 -1)" fill="none" stroke="#000" stroke-linecap="round" stroke-linejoin="round" stroke-width="0.5"/>
  </g>
  <rect x="1385.5" y="11.99" width="144.06" height="30.46" rx="6.34" ry="6.34" fill="#fff" stroke="#777" stroke-miterlimit="10"/>
  <path d="M1553,21.88V32.57h7.07l8.88,8.88V13l-8.88,8.88Z" transform="translate(0 -1)"/>
</svg>
