<?xml version="1.0" encoding="utf-8"?>
<!-- Generator: Adobe Illustrator 22.1.0, SVG Export Plug-In . SVG Version: 6.00 Build 0)  -->
<svg version="1.1" id="Layer_1" xmlns="http://www.w3.org/2000/svg" xmlns:xlink="http://www.w3.org/1999/xlink" x="0px" y="0px"
	 viewBox="0 0 175 222" style="enable-background:new 0 0 175 222;" xml:space="preserve">
<style type="text/css">
	.st0{fill:none;}
	.st1{opacity:0.31;fill:#84CCD9;enable-background:new    ;}
	.st2{opacity:0.31;fill:#A5CF67;enable-background:new    ;}
	.st3{opacity:0.31;fill:#0096BA;enable-background:new    ;}
	.st4{fill:#231F20;}
	.st5{fill:#EC1C24;}
</style>
<polygon class="st0" points="82,107.8 82,133.1 96.6,107.8 "/>
<polygon class="st0" points="52.8,82.6 38.2,107.8 60.1,95.3 "/>
<polygon class="st1" points="38.2,107.8 67.4,107.8 60.1,95.3 "/>
<polygon class="st1" points="96.6,107.8 125.8,57.3 82,82.6 82,107.8 "/>
<polygon class="st2" points="82,133.1 125.8,107.8 96.6,107.8 "/>
<polygon class="st2" points="60.1,95.3 82,82.6 82,32 52.8,82.6 "/>
<polygon class="st2" points="67.4,107.8 82,133.1 82,107.8 "/>
<polygon class="st1" points="38.2,57.3 38.2,107.8 52.8,82.6 "/>
<polygon class="st3" points="125.8,57.3 96.6,107.8 125.8,107.8 125.8,57.3 "/>
<polygon class="st3" points="82,82.6 60.1,95.3 67.4,107.8 82,107.8 "/>
<polygon class="st3" points="82,32 38.2,57.3 52.8,82.6 "/>
<g>
	<path class="st4" d="M18.1,61.1v-0.6h8.8v0.6h-4v10.8h-0.7V61.1H18.1z"/>
	<path class="st4" d="M27.6,60.5h4.8c2,0,3.6,0.7,3.6,2.9c0.1,1.5-1,2.7-2.5,2.9l0,0c1.7,0.2,2.1,1.3,2.2,2.5s-0.1,2.5,0.4,3.1h-0.8
		c-0.4-0.8-0.2-2.1-0.3-3.2c-0.1-1.1-0.7-2-2.7-2h-4.1v5.3h-0.7V60.5z M32.4,66.1c1.7,0,2.9-0.8,2.9-2.6c0-1.8-1.4-2.4-2.9-2.4h-4.1
		v5L32.4,66.1z"/>
	<path class="st4" d="M41.9,60.5l4.5,11.4h-0.8l-1.4-3.7h-5.5l-1.5,3.7h-0.8l4.6-11.4L41.9,60.5z M44,67.7l-2.4-6.5l0,0L39,67.7H44z
		"/>
	<path class="st4" d="M47.2,60.5h0.7v11.4h-0.7V60.5z"/>
	<path class="st4" d="M49.9,60.5h0.9L58,71l0,0V60.5h0.7v11.4h-0.8l-7.3-10.6l0,0v10.6h-0.7L49.9,60.5z"/>
	<path class="st4" d="M60.7,60.5h0.7v11.4h-0.7V60.5z"/>
	<path class="st4" d="M63.5,60.5h0.9L71.5,71l0,0V60.5h0.7v11.4h-0.8l-7.3-10.6l0,0v10.6h-0.7L63.5,60.5z"/>
	<path class="st4" d="M84.2,66.4v5.6h-0.6v-2.4l0,0c-0.7,1.7-2.5,2.8-4.3,2.7c-3.5,0-5.4-2.6-5.4-5.9c0-3.3,1.9-6,5.4-6
		c2.3-0.1,4.3,1.5,4.7,3.8h-0.7c-0.4-1.9-2.1-3.3-4.1-3.2c-3.1,0-4.7,2.6-4.7,5.4s1.6,5.3,4.7,5.3c2.7,0,4.4-1.9,4.3-4.6h-4.2v-0.6
		H84.2z"/>
	<path class="st4" d="M98.1,63.8c-0.1-1.9-1.6-2.9-3.7-2.9c-1.3,0-3.1,0.5-3.1,2.4c0,1.9,1.9,2.1,3.9,2.5s3.9,0.9,3.9,3.2
		c0,2.3-2.3,3.2-4,3.2c-2.7,0-4.8-1.1-4.8-4H91c-0.1,2.5,1.9,3.4,4.1,3.4c1.4,0,3.3-0.6,3.3-2.6c0-2-2-2.2-4-2.6
		c-2-0.4-3.9-0.9-3.9-3c0-2.2,2-3,3.8-3c2.4,0,4.3,1,4.4,3.5L98.1,63.8z"/>
	<path class="st4" d="M108.4,71.3v0.6h-7.8V60.5h7.7v0.6h-7v4.6h6.6v0.6h-6.6v5L108.4,71.3z"/>
	<path class="st4" d="M117.1,63.8c-0.1-1.9-1.5-2.9-3.7-2.9c-1.3,0-3.1,0.5-3.1,2.4c0,1.9,1.9,2.1,3.9,2.5c1.9,0.4,3.9,0.9,3.9,3.2
		c0,2.3-2.3,3.2-4,3.2c-2.7,0-4.8-1.1-4.8-4h0.7c-0.1,2.5,1.9,3.4,4.1,3.4c1.4,0,3.3-0.6,3.3-2.6c0-2-1.9-2.3-3.9-2.7
		c-1.9-0.4-3.9-0.8-3.9-3c0-2.2,2-3,3.8-3c2.4,0,4.3,1,4.4,3.5H117.1z"/>
	<path class="st4" d="M127.2,63.8c-0.1-1.9-1.5-2.9-3.7-2.9c-1.3,0-3.1,0.5-3.1,2.4c0,1.9,2,2.1,3.9,2.5c1.9,0.4,3.9,0.9,3.9,3.2
		c0,2.3-2.3,3.2-4,3.2c-2.7,0-4.8-1.1-4.8-4h0.7c-0.1,2.5,1.9,3.4,4.1,3.4c1.4,0,3.3-0.6,3.3-2.6c0-2-1.9-2.3-3.9-2.7
		c-1.9-0.4-3.9-0.9-3.9-3c0-2.2,2-3,3.8-3c2.4,0,4.2,1,4.4,3.5L127.2,63.8z"/>
	<path class="st4" d="M129.8,60.5h0.7v11.4h-0.7V60.5z"/>
	<path class="st4" d="M137.4,72.2c-3.4,0-5.4-2.6-5.4-6c0-3.3,2-6,5.4-6s5.4,2.6,5.4,6C142.9,69.6,140.8,72.2,137.4,72.2z
		 M137.4,71.6c3,0,4.7-2.4,4.7-5.4c0-2.9-1.7-5.4-4.7-5.4s-4.7,2.4-4.7,5.4C132.7,69.1,134.4,71.6,137.4,71.6z"/>
	<path class="st4" d="M144.4,60.5h0.9l7.2,10.5l0,0V60.5h0.7v11.4h-0.8l-7.3-10.6l0,0v10.6h-0.7L144.4,60.5z"/>
</g>
<g>
	<path class="st4" d="M32.6,138.9H36c1.1-0.1,2.2,0.7,2.3,1.8c0,0.1,0,0.3,0,0.4c0,1.4-0.9,2.2-2.5,2.2h-2.7v3.6h-0.5V138.9z
		 M33.1,142.9h2.8c1,0.1,1.8-0.6,1.9-1.5c0-0.1,0-0.2,0-0.3c0.1-0.9-0.7-1.7-1.6-1.8c-0.1,0-0.2,0-0.3,0h-2.9V142.9z"/>
	<path class="st4" d="M39.7,138.9v8h-0.4v-8H39.7z"/>
	<path class="st4" d="M41.2,144c0,1.4,0.7,2.6,2.1,2.6c1,0,1.9-0.7,2.1-1.7h0.4c-0.1,1.3-1.2,2.2-2.5,2.1c-1.7,0-2.6-1.3-2.5-2.9
		c0-1.6,0.8-3.1,2.5-3.1c1.7,0,2.6,1.4,2.5,3.1H41.2z M45.4,143.7c0.1-1.2-0.8-2.2-2-2.3c0,0-0.1,0-0.1,0c-1.2,0.1-2.1,1.1-2.1,2.3
		H45.4z"/>
	<path class="st4" d="M51.1,145.8c0,0.3,0,0.7,0.4,0.7c0.1,0,0.2,0,0.3,0v0.4c-0.1,0-0.2,0-0.3,0c-0.7,0-0.8-0.4-0.8-0.8v-0.3l0,0
		c-0.4,0.8-1.2,1.3-2.1,1.3c-1.1,0-1.9-0.4-1.9-1.6c0-1.3,1.2-1.6,2.1-1.7c1.9-0.1,2-0.3,2-1.2c0-0.3-0.3-1.1-1.6-1.1
		c-0.9-0.1-1.7,0.5-1.8,1.4c0,0,0,0.1,0,0.1h-0.4c0.1-1.3,0.8-1.9,2.2-1.9c1,0,2,0.3,2,1.5L51.1,145.8z M50.6,143.6
		c-0.3,0.4-1.2,0.3-2.1,0.4c-1,0.1-1.6,0.5-1.6,1.3c0,0.7,0.5,1.2,1.5,1.2c1.1,0.1,2.1-0.7,2.1-1.8c0,0,0-0.1,0-0.1L50.6,143.6z"/>
	<path class="st4" d="M52.6,145c0,1,0.9,1.7,1.8,1.7c0,0,0,0,0.1,0c0.8,0,1.8-0.2,1.8-1.2s-1-1.1-2-1.3c-1-0.2-2-0.5-2-1.6
		s1.1-1.5,2.1-1.5c1.2,0,2.1,0.5,2.1,1.8h-0.4c0-1-0.7-1.5-1.7-1.5c-0.8,0-1.7,0.3-1.7,1.1s1,1.1,1.9,1.3c1.1,0.2,2,0.5,2,1.7
		c0,1.2-1.2,1.6-2.2,1.6c-1.1,0.1-2.2-0.7-2.3-1.8c0-0.1,0-0.2,0-0.2L52.6,145z"/>
	<path class="st4" d="M58,144c0,1.4,0.7,2.6,2.1,2.6c1,0,1.9-0.7,2.1-1.7h0.4c-0.1,1.3-1.2,2.2-2.5,2.1c-1.7,0-2.6-1.3-2.5-2.9
		c0-1.6,0.8-3.1,2.5-3.1s2.6,1.4,2.5,3.1H58z M62.2,143.7c0.1-1.2-0.8-2.2-2-2.3c0,0,0,0-0.1,0c-1.2,0.1-2.1,1.1-2.1,2.3H62.2z"/>
	<path class="st4" d="M71.1,145.6L71.1,145.6c-0.4,0.9-1.3,1.4-2.2,1.4c-1.7,0-2.5-1.4-2.5-3c0-1.6,0.8-3,2.6-3
		c0.9,0,1.8,0.5,2.1,1.4l0,0v-3.5h0.4v8h-0.4V145.6z M71.1,144c0-1.3-0.7-2.7-2.1-2.7c-1.5,0-2.1,1.3-2.1,2.7c0,1.4,0.7,2.6,2.1,2.6
		S71.1,145.3,71.1,144L71.1,144z"/>
	<path class="st4" d="M75.2,141c1.7,0,2.6,1.4,2.6,3s-1,3-2.6,3s-2.6-1.4-2.6-3S73.6,141,75.2,141z M75.2,146.6
		c1.4,0,2.2-1.3,2.2-2.6s-0.8-2.6-2.2-2.6c-1.4,0-2.2,1.3-2.2,2.6S73.8,146.6,75.2,146.6z"/>
	<path class="st4" d="M82,141.1h0.4v1.2l0,0c0.3-0.8,1.1-1.4,2.1-1.4c2,0,2,1.6,2,2.3v3.6h-0.4v-3.6c0-0.6-0.1-1.9-1.6-1.9
		c-1.3,0-2.1,1-2.1,2.4v3.1H82L82,141.1z"/>
	<path class="st4" d="M90.2,141c1.7,0,2.6,1.4,2.6,3s-1,3-2.6,3s-2.6-1.4-2.6-3S88.5,141,90.2,141z M90.2,146.6
		c1.4,0,2.2-1.3,2.2-2.6s-0.8-2.6-2.2-2.6s-2.2,1.3-2.2,2.6S88.7,146.6,90.2,146.6z"/>
	<path class="st4" d="M95.9,141.5h-1.2v4c0,0.9,0.4,1,1.2,1v0.4c-0.9,0.1-1.7-0.1-1.7-1.4v-4h-1.1v-0.4h1.1v-1.8h0.4v1.8h1.2V141.5z
		"/>
	<path class="st4" d="M104.1,142.9c-0.1-1-1-1.6-1.9-1.5c0,0,0,0,0,0c-1.4,0-2.2,1.3-2.2,2.6c0,1.6,0.7,2.7,2.2,2.7
		c1,0,1.9-0.8,2-1.8h0.4c-0.1,1.2-1.2,2.2-2.4,2.1c-1.9,0-2.6-1.5-2.6-3.1s0.9-2.9,2.6-2.9c1.2-0.2,2.2,0.7,2.4,1.8c0,0,0,0.1,0,0.1
		H104.1z"/>
	<path class="st4" d="M106.1,138.9v8h-0.4v-8H106.1z"/>
	<path class="st4" d="M109.8,141c1.7,0,2.6,1.4,2.6,3s-1,3-2.6,3s-2.6-1.4-2.6-3S108.1,141,109.8,141z M109.8,146.6
		c1.4,0,2.2-1.3,2.2-2.6s-0.8-2.6-2.2-2.6c-1.4,0-2.2,1.3-2.2,2.6S108.4,146.6,109.8,146.6z"/>
	<path class="st4" d="M113.6,145c0,1,0.9,1.7,1.8,1.7c0,0,0,0,0.1,0c0.7,0,1.8-0.2,1.8-1.2s-1-1.1-2-1.3c-1-0.2-2-0.5-2-1.6
		s1.1-1.5,2.1-1.5c1.2,0,2.1,0.5,2.1,1.8h-0.4c0-1-0.7-1.5-1.7-1.5c-0.8,0-1.7,0.3-1.7,1.1s1,1.1,1.9,1.3c1.1,0.2,2,0.5,2,1.7
		c0,1.2-1.2,1.6-2.2,1.6c-1.1,0.1-2.2-0.7-2.3-1.8c0-0.1,0-0.2,0-0.2L113.6,145z"/>
	<path class="st4" d="M119,144c0,1.4,0.7,2.6,2.1,2.6c1,0,1.9-0.7,2.1-1.7h0.4c-0.1,1.3-1.2,2.2-2.5,2.1c-1.7,0-2.6-1.3-2.5-2.9
		c0-1.6,0.8-3.1,2.5-3.1s2.6,1.4,2.5,3.1H119z M123.2,143.7c0.1-1.2-0.8-2.2-2-2.3c0,0,0,0-0.1,0c-1.2,0.1-2.1,1.1-2.1,2.3H123.2z"
		/>
	<path class="st4" d="M129.8,141.5h-1.3v4c0,0.9,0.4,1,1.2,1v0.4c-0.9,0.1-1.7-0.1-1.7-1.4v-4h-1.1v-0.4h1.1v-1.8h0.4v1.8h1.3V141.5
		z"/>
	<path class="st4" d="M131,138.9v3.5l0,0c0.3-0.8,1.1-1.4,2.1-1.4c2,0,2,1.6,2,2.3v3.6h-0.4v-3.6c0-0.6-0.1-1.9-1.6-1.9
		c-1.3,0-2.1,1-2.1,2.4v3.1h-0.4v-8L131,138.9z"/>
	<path class="st4" d="M136.5,140v-1.2h0.4v1.2H136.5z M136.5,146.9v-5.7h0.4v5.7H136.5z"/>
	<path class="st4" d="M138.5,145c0,1,0.9,1.7,1.8,1.7c0,0,0,0,0.1,0c0.8,0,1.8-0.2,1.8-1.2s-1-1.1-2-1.3c-1-0.2-2-0.5-2-1.6
		s1.1-1.5,2.1-1.5c1.2,0,2.1,0.5,2.1,1.8H142c0-1-0.7-1.5-1.7-1.5c-0.8,0-1.7,0.3-1.7,1.1s1,1.1,1.9,1.3c1.1,0.2,2,0.5,2,1.7
		c0,1.2-1.2,1.6-2.2,1.6c-1.1,0.1-2.2-0.7-2.3-1.8c0-0.1,0-0.2,0-0.2L138.5,145z"/>
	<path class="st4" d="M19.1,159.8L19.1,159.8l1.6-5.2h0.6l1.6,5.2l0,0l1.6-5.2h0.5l-1.8,5.7h-0.6l-1.6-5.2l0,0l-1.6,5.2h-0.5
		l-1.8-5.7h0.5L19.1,159.8z"/>
	<path class="st4" d="M25.6,153.4v-1.1H26v1.1H25.6z M25.6,160.2v-5.7H26v5.7H25.6z"/>
	<path class="st4" d="M27.4,154.5h0.4v1.2l0,0c0.3-0.8,1.1-1.4,2.1-1.4c2,0,2,1.6,2,2.3v3.5h-0.4v-3.6c0-0.6-0.1-1.9-1.6-1.9
		c-1.3,0-2.1,1-2.1,2.4v3.1h-0.4L27.4,154.5z"/>
	<path class="st4" d="M37.6,159L37.6,159c-0.4,0.9-1.3,1.4-2.2,1.4c-1.7,0-2.5-1.4-2.5-3c0-1.7,0.8-3,2.6-3c0.9,0,1.8,0.6,2.1,1.5
		l0,0v-3.5H38v8h-0.4L37.6,159z M37.6,157.4c0-1.3-0.7-2.7-2.1-2.7s-2.1,1.3-2.1,2.7s0.7,2.6,2.1,2.6
		C36.9,160,37.6,158.7,37.6,157.4L37.6,157.4z"/>
	<path class="st4" d="M41.7,154.4c1.7,0,2.6,1.4,2.6,3s-0.9,3-2.6,3s-2.6-1.4-2.6-3S40.1,154.4,41.7,154.4z M41.7,160
		c1.4,0,2.2-1.3,2.2-2.6s-0.8-2.6-2.2-2.6c-1.4,0-2.2,1.3-2.2,2.6S40.3,160,41.7,160z"/>
	<path class="st4" d="M46.8,159.8L46.8,159.8l1.6-5.2H49l1.6,5.2l0,0l1.6-5.2h0.5l-1.8,5.7h-0.5l-1.6-5.2l0,0l-1.6,5.2h-0.5
		l-1.8-5.7h0.5L46.8,159.8z"/>
	<path class="st4" d="M57.8,159.8L57.8,159.8l1.6-5.2h0.6l1.6,5.2l0,0l1.6-5.2h0.5l-1.8,5.7h-0.5l-1.6-5.2l0,0l-1.6,5.2h-0.5
		l-1.8-5.7h0.5L57.8,159.8z"/>
	<path class="st4" d="M64.6,152.3v3.5l0,0c0.3-0.8,1.1-1.4,2.1-1.4c2,0,2,1.6,2,2.3v3.5h-0.4v-3.6c0-0.6-0.1-1.9-1.6-1.9
		c-1.3,0-2.1,1-2.1,2.4v3.1h-0.4v-8L64.6,152.3z"/>
	<path class="st4" d="M70.1,153.4v-1.1h0.4v1.1H70.1z M70.1,160.2v-5.7h0.4v5.7H70.1z"/>
	<path class="st4" d="M72.4,152.3v8H72v-8H72.4z"/>
	<path class="st4" d="M73.9,157.4c0,1.4,0.7,2.6,2.1,2.6c1,0,1.9-0.7,2.1-1.7h0.4c-0.1,1.3-1.2,2.2-2.5,2.1c-1.7,0-2.6-1.3-2.5-2.9
		c0-1.6,0.8-3.1,2.5-3.1c1.7,0,2.6,1.4,2.5,3.1H73.9z M78.1,157.1c0.1-1.2-0.8-2.2-2-2.3c0,0,0,0-0.1,0c-1.2,0.1-2.1,1.1-2.1,2.3
		H78.1z"/>
	<path class="st4" d="M84.8,160.2h-0.5l-2.3-5.7h0.5l2.1,5.2l0,0l1.9-5.2H87L84.8,160.2z"/>
	<path class="st4" d="M87.7,153.4v-1.1h0.4v1.1H87.7z M87.7,160.2v-5.7h0.4v5.7H87.7z"/>
	<path class="st4" d="M89.6,157.4c0,1.4,0.7,2.6,2.1,2.6c1,0,1.9-0.7,2.1-1.7h0.4c-0.1,1.3-1.2,2.2-2.5,2.1c-1.7,0-2.6-1.3-2.5-2.9
		c0-1.6,0.8-3.1,2.5-3.1s2.6,1.4,2.5,3.1H89.6z M93.8,157.1c0.1-1.2-0.8-2.2-2-2.3c0,0-0.1,0-0.1,0c-1.2,0.1-2.1,1.1-2.1,2.3H93.8z"
		/>
	<path class="st4" d="M96.7,159.8L96.7,159.8l1.6-5.2h0.6l1.6,5.2l0,0l1.6-5.2h0.5l-1.8,5.7h-0.5l-1.6-5.2l0,0l-1.6,5.2h-0.5
		l-1.8-5.7h0.5L96.7,159.8z"/>
	<path class="st4" d="M103.2,153.4v-1.1h0.4v1.1H103.2z M103.2,160.2v-5.7h0.4v5.7H103.2z"/>
	<path class="st4" d="M105,154.5h0.4v1.2l0,0c0.3-0.8,1.1-1.4,2.1-1.4c2,0,2,1.6,2,2.3v3.5h-0.4v-3.6c0-0.6-0.1-1.9-1.6-1.9
		c-1.3,0-2.1,1-2.1,2.4v3.1H105L105,154.5z"/>
	<path class="st4" d="M115.5,154.5v5.4c0.2,1.2-0.7,2.3-1.9,2.5c-0.2,0-0.4,0-0.6,0c-1.2,0-2.2-0.5-2.2-1.8h0.4
		c0.1,1,0.9,1.4,1.8,1.4c1,0.1,1.9-0.6,2-1.6c0-0.1,0-0.3,0-0.4v-1.3l0,0c-0.4,0.8-1.2,1.4-2.1,1.3c-1.7,0-2.5-1.2-2.5-2.8
		s0.9-2.8,2.5-2.8c0.9,0,1.7,0.5,2.1,1.3l0,0v-1.2L115.5,154.5z M111,157.2c0,1.4,0.7,2.5,2.1,2.5s2.1-1.2,2.1-2.5s-0.7-2.5-2.1-2.5
		C111.6,154.7,111,156,111,157.2z"/>
	<path class="st4" d="M120.1,158.3c0,1,0.9,1.7,1.8,1.7c0,0,0,0,0.1,0c0.8,0,1.8-0.2,1.8-1.2s-1-1.1-2-1.3c-1-0.2-2-0.5-2-1.6
		s1.1-1.5,2.1-1.5c1.2,0,2.1,0.5,2.1,1.8h-0.4c0-1-0.7-1.5-1.7-1.5c-0.8,0-1.7,0.3-1.7,1.1c0,0.8,1,1.1,1.9,1.3c1.1,0.2,2,0.5,2,1.7
		c0,1.2-1.2,1.6-2.2,1.6c-1.1,0.1-2.2-0.7-2.3-1.8c0-0.1,0-0.2,0-0.2L120.1,158.3z"/>
	<path class="st4" d="M125.4,157.4c0,1.4,0.7,2.6,2.1,2.6c1,0,1.9-0.7,2.1-1.7h0.4c-0.1,1.3-1.2,2.2-2.5,2.1c-1.7,0-2.6-1.3-2.5-2.9
		s0.8-3.1,2.5-3.1s2.6,1.4,2.5,3.1H125.4z M129.6,157.1c0.1-1.2-0.8-2.2-2-2.3c0,0,0,0-0.1,0c-1.2,0.1-2.1,1.1-2.1,2.3H129.6z"/>
	<path class="st4" d="M131.3,158.3c0,1,0.9,1.7,1.8,1.7c0,0,0,0,0.1,0c0.7,0,1.8-0.2,1.8-1.2s-1-1.1-2-1.3c-1-0.2-2-0.5-2-1.6
		s1.1-1.5,2.1-1.5c1.2,0,2.1,0.5,2.1,1.8h-0.4c0-1-0.7-1.5-1.7-1.5c-0.8,0-1.7,0.3-1.7,1.1c0,0.8,1,1.1,1.9,1.3c1.1,0.2,2,0.5,2,1.7
		c0,1.2-1.2,1.6-2.2,1.6c-1.1,0.1-2.2-0.7-2.3-1.8c0-0.1,0-0.2,0-0.2L131.3,158.3z"/>
	<path class="st4" d="M136.6,158.3c0,1,0.9,1.7,1.8,1.7c0,0,0,0,0.1,0c0.8,0,1.8-0.2,1.8-1.2s-1-1.1-2-1.3c-1-0.2-2-0.5-2-1.6
		s1.1-1.5,2.1-1.5c1.2,0,2.1,0.5,2.1,1.8h-0.4c0-1-0.7-1.5-1.7-1.5c-0.8,0-1.6,0.3-1.6,1.1c0,0.8,1,1.1,1.9,1.3c1.1,0.2,2,0.5,2,1.7
		c0,1.2-1.2,1.6-2.2,1.6c-1.1,0.1-2.2-0.7-2.3-1.8c0-0.1,0-0.2,0-0.2L136.6,158.3z"/>
	<path class="st4" d="M141.9,153.4v-1.1h0.4v1.1H141.9z M141.9,160.2v-5.7h0.4v5.7H141.9z"/>
	<path class="st4" d="M146,154.4c1.7,0,2.6,1.4,2.6,3s-0.9,3-2.6,3s-2.6-1.4-2.6-3S144.3,154.4,146,154.4z M146,160
		c1.4,0,2.2-1.3,2.2-2.6s-0.8-2.6-2.2-2.6c-1.4,0-2.2,1.3-2.2,2.6S144.6,160,146,160z"/>
	<path class="st4" d="M149.7,154.5h0.4v1.2l0,0c0.3-0.8,1.2-1.4,2.1-1.4c2,0,2,1.6,2,2.3v3.5h-0.4v-3.6c0-0.6-0.1-1.9-1.6-1.9
		c-1.3,0-2.1,1-2.1,2.4v3.1h-0.4L149.7,154.5z"/>
	<path class="st4" d="M156.1,160.2v-1.1h0.6v1.1H156.1z"/>
	<path class="st4" d="M18,165.7h0.5v8H18L18,165.7z"/>
	<path class="st4" d="M21.9,168.3h-1.2v4c0,0.9,0.4,1,1.2,1v0.4c-0.9,0.1-1.7-0.1-1.7-1.4v-4h-1.1v-0.4h1.1v-1.8h0.4v1.8h1.2V168.3z
		"/>
	<path class="st4" d="M27.3,173.2L27.3,173.2l1.6-5.2h0.6l1.6,5.2l0,0l1.6-5.2h0.5l-1.8,5.7h-0.5l-1.6-5.2l0,0l-1.6,5.2H27l-1.8-5.7
		h0.5L27.3,173.2z"/>
	<path class="st4" d="M33.8,166.8v-1.2h0.4v1.2H33.8z M33.8,173.6v-5.7h0.4v5.7H33.8z"/>
	<path class="st4" d="M36.1,165.7v8h-0.4v-8H36.1z"/>
	<path class="st4" d="M38,165.7v8h-0.4v-8H38z"/>
	<path class="st4" d="M46.7,169.7c-0.1-1-1-1.6-1.9-1.5c0,0,0,0,0,0c-1.4,0-2.2,1.3-2.2,2.6c0,1.6,0.7,2.7,2.2,2.7
		c1,0,1.9-0.8,2-1.8h0.4c-0.1,1.2-1.2,2.2-2.4,2.2c-1.9,0-2.6-1.5-2.6-3.1s0.9-2.9,2.6-2.9c1.2-0.2,2.2,0.7,2.4,1.8c0,0,0,0.1,0,0.1
		L46.7,169.7z"/>
	<path class="st4" d="M48.7,165.7v8h-0.4v-8H48.7z"/>
	<path class="st4" d="M52.5,167.8c1.7,0,2.6,1.4,2.6,3s-0.9,3-2.6,3s-2.6-1.4-2.6-3S50.8,167.8,52.5,167.8z M52.5,173.4
		c1.4,0,2.2-1.3,2.2-2.6s-0.8-2.6-2.2-2.6s-2.2,1.3-2.2,2.6S51,173.4,52.5,173.4L52.5,173.4z"/>
	<path class="st4" d="M56.3,171.7c0,1,0.8,1.7,1.8,1.7c0,0,0.1,0,0.1,0c0.8,0,1.8-0.2,1.8-1.2c0-1-1-1.1-2-1.3c-1-0.2-2-0.5-2-1.6
		c0-1.1,1.1-1.5,2.1-1.5c1.2,0,2.1,0.5,2.1,1.8h-0.4c0-1-0.7-1.5-1.7-1.5c-0.8,0-1.7,0.3-1.7,1.1c0,0.8,1,1.1,1.9,1.3
		c1.1,0.2,2,0.5,2,1.7c0,1.2-1.2,1.6-2.2,1.6c-1.1,0.1-2.2-0.7-2.3-1.8c0-0.1,0-0.2,0-0.2L56.3,171.7z"/>
	<path class="st4" d="M61.7,170.8c0,1.4,0.7,2.6,2.1,2.6c1,0,1.9-0.7,2.1-1.7h0.4c-0.1,1.3-1.2,2.2-2.5,2.1c-1.7,0-2.6-1.3-2.5-2.9
		c0-1.6,0.8-3.1,2.5-3.1s2.6,1.4,2.5,3.1H61.7z M65.9,170.5c0.1-1.2-0.8-2.2-2-2.3c0,0,0,0-0.1,0c-1.2,0.1-2.1,1.1-2.1,2.3H65.9z"/>
	<path class="st4" d="M74.6,172.6c0,0.3,0,0.7,0.4,0.7c0.1,0,0.2,0,0.3,0v0.4c-0.1,0-0.2,0-0.3,0c-0.7,0-0.8-0.4-0.8-0.8v-0.3l0,0
		c-0.4,0.8-1.2,1.3-2.1,1.3c-1.1,0-1.9-0.4-1.9-1.6c0-1.3,1.2-1.6,2.1-1.7c1.9-0.1,2-0.3,2-1.2c0-0.3-0.3-1.1-1.6-1.1
		c-0.9-0.1-1.7,0.5-1.8,1.4c0,0,0,0.1,0,0.1h-0.4c0.1-1.3,0.8-1.9,2.2-1.9c1,0,2,0.3,2,1.5L74.6,172.6z M74.2,170.4
		c-0.3,0.4-1.2,0.3-2.1,0.4c-1,0.1-1.6,0.5-1.6,1.3c0,0.7,0.5,1.2,1.5,1.2c1.1,0.1,2.1-0.7,2.1-1.8c0,0,0-0.1,0-0.1L74.2,170.4z"/>
	<path class="st4" d="M80.5,173.6H80v-1.2l0,0c-0.3,0.8-1.1,1.4-2.1,1.4c-2,0-2-1.6-2-2.3v-3.6h0.4v3.6c0,0.6,0.1,1.9,1.6,1.9
		c1.3,0,2.1-1,2.1-2.4v-3.1h0.4L80.5,173.6z"/>
	<path class="st4" d="M83.8,168.3h-1.3v4c0,0.9,0.4,1,1.2,1v0.4c-0.9,0.1-1.7-0.1-1.7-1.4v-4h-1.1v-0.4h1.1v-1.8h0.4v1.8h1.3V168.3z
		"/>
	<path class="st4" d="M87,167.8c1.7,0,2.6,1.4,2.6,3s-1,3-2.6,3s-2.6-1.4-2.6-3S85.3,167.8,87,167.8z M87,173.4
		c1.4,0,2.2-1.3,2.2-2.6s-0.8-2.6-2.2-2.6s-2.2,1.3-2.2,2.6S85.5,173.4,87,173.4L87,173.4z"/>
	<path class="st4" d="M90.6,167.9H91v1.2l0,0c0.2-0.8,1-1.3,1.8-1.3c0.8-0.1,1.5,0.4,1.7,1.2l0,0c0.3-0.8,1-1.3,1.8-1.2
		c0.9-0.1,1.8,0.7,1.8,1.6c0,0.1,0,0.2,0,0.4v3.9h-0.4v-3.9c0-1.5-1-1.6-1.4-1.6c-1,0-1.8,0.7-1.8,2.1v3.4h-0.4v-3.9
		c0-1.4-1-1.6-1.4-1.6c-1.1,0-1.9,0.9-1.8,2c0,0,0,0.1,0,0.1v3.4h-0.4L90.6,167.9z"/>
	<path class="st4" d="M103.7,172.6c0,0.3,0,0.7,0.4,0.7c0.1,0,0.2,0,0.3,0v0.4c-0.1,0-0.2,0-0.4,0c-0.7,0-0.8-0.4-0.8-0.8v-0.3l0,0
		c-0.4,0.8-1.2,1.3-2.1,1.3c-1.1,0-1.9-0.4-1.9-1.6c0-1.3,1.2-1.6,2.1-1.7c1.9-0.1,2-0.3,2-1.2c0-0.3-0.3-1.1-1.6-1.1
		c-0.9-0.1-1.7,0.5-1.8,1.4c0,0,0,0.1,0,0.1h-0.4c0.1-1.3,0.8-1.9,2.2-1.9c1,0,2,0.3,2,1.5L103.7,172.6z M103.3,170.4
		c-0.3,0.4-1.3,0.3-2.1,0.4c-1,0.1-1.6,0.5-1.6,1.3c0,0.7,0.5,1.2,1.5,1.2c1.1,0.1,2.1-0.7,2.1-1.8c0,0,0-0.1,0-0.1L103.3,170.4z"/>
	<path class="st4" d="M107.2,168.3h-1.2v4c0,0.9,0.4,1,1.2,1v0.4c-0.9,0.1-1.7-0.1-1.7-1.4v-4h-1.1v-0.4h1.1v-1.8h0.4v1.8h1.2V168.3
		z"/>
	<path class="st4" d="M108.1,166.8v-1.2h0.4v1.2H108.1z M108.1,173.6v-5.7h0.4v5.7H108.1z"/>
	<path class="st4" d="M114.2,169.7c-0.1-1-1-1.6-1.9-1.5c0,0,0,0,0,0c-1.4,0-2.2,1.3-2.2,2.6c0,1.6,0.7,2.7,2.2,2.7
		c1,0,1.9-0.8,2-1.8h0.4c-0.1,1.2-1.2,2.2-2.4,2.2c-1.9,0-2.6-1.5-2.6-3.1s0.9-2.9,2.6-2.9c1.2-0.2,2.2,0.7,2.4,1.8c0,0,0,0.1,0,0.1
		L114.2,169.7z"/>
	<path class="st4" d="M119.9,172.6c0,0.3,0,0.7,0.4,0.7c0.1,0,0.2,0,0.3,0v0.4c-0.1,0-0.2,0-0.3,0c-0.7,0-0.8-0.4-0.8-0.8v-0.3l0,0
		c-0.4,0.8-1.2,1.3-2.1,1.3c-1.1,0-1.9-0.4-1.9-1.6c0-1.3,1.2-1.6,2.1-1.7c1.9-0.1,2-0.3,2-1.2c0-0.3-0.3-1.1-1.6-1.1
		c-0.9-0.1-1.7,0.5-1.8,1.4c0,0,0,0.1,0,0.1h-0.4c0.1-1.3,0.8-1.9,2.2-1.9c1,0,2,0.3,2,1.5L119.9,172.6z M119.4,170.4
		c-0.3,0.4-1.3,0.3-2.1,0.4c-1,0.1-1.6,0.5-1.6,1.3c0,0.7,0.5,1.2,1.5,1.2c1.1,0.1,2.1-0.7,2.1-1.8c0,0,0-0.1,0-0.1L119.4,170.4z"/>
	<path class="st4" d="M121.7,165.7v8h-0.4v-8H121.7z"/>
	<path class="st4" d="M123.6,165.7v8h-0.4v-8H123.6z"/>
	<path class="st4" d="M124.3,167.9h0.5l2.1,5.2l2-5.2h0.5l-2.5,6.4c-0.1,0.4-0.4,0.8-0.7,1.2c-0.4,0.2-0.9,0.3-1.3,0.3v-0.4
		c0.4,0.1,0.9-0.1,1.2-0.4c0.3-0.4,0.5-0.9,0.6-1.4L124.3,167.9z"/>
	<path class="st4" d="M134.5,173.2L134.5,173.2l1.6-5.2h0.6l1.6,5.2l0,0l1.6-5.2h0.5l-1.8,5.7h-0.5l-1.6-5.2l0,0l-1.6,5.2h-0.5
		l-1.8-5.7h0.5L134.5,173.2z"/>
	<path class="st4" d="M141.3,165.7v3.5l0,0c0.3-0.8,1.1-1.4,2.1-1.4c2,0,2,1.6,2,2.3v3.5H145V170c0-0.6-0.1-1.9-1.6-1.9
		c-1.3,0-2.1,1-2.1,2.4v3.1h-0.4v-8L141.3,165.7z"/>
	<path class="st4" d="M146.8,170.8c0,1.4,0.7,2.6,2.1,2.6c1,0,1.9-0.7,2.1-1.7h0.4c-0.1,1.3-1.2,2.2-2.5,2.1c-1.7,0-2.6-1.3-2.5-2.9
		c0-1.6,0.8-3.1,2.5-3.1c1.7,0,2.6,1.4,2.5,3.1H146.8z M151.1,170.5c0.1-1.2-0.8-2.2-2-2.3c0,0,0,0-0.1,0c-1.2,0.1-2.1,1.1-2.1,2.3
		H151.1z"/>
	<path class="st4" d="M152.5,167.9h0.4v1.2l0,0c0.3-0.8,1.1-1.4,2.1-1.4c2,0,2,1.6,2,2.3v3.5h-0.4V170c0-0.6-0.1-1.9-1.6-1.9
		c-1.3,0-2.1,1-2.1,2.4v3.1h-0.4L152.5,167.9z"/>
	<path class="st4" d="M47.6,181.3h0.5l2.1,5.2l2-5.2h0.5l-2.5,6.4c-0.1,0.4-0.4,0.8-0.7,1.2c-0.4,0.2-0.9,0.3-1.3,0.3v-0.4
		c0.4,0.1,0.9-0.1,1.2-0.4c0.3-0.4,0.5-0.9,0.6-1.4L47.6,181.3z"/>
	<path class="st4" d="M55.6,181.2c1.7,0,2.6,1.4,2.6,3s-1,3-2.6,3c-1.7,0-2.6-1.4-2.6-3S53.9,181.2,55.6,181.2z M55.6,186.8
		c1.4,0,2.2-1.3,2.2-2.6s-0.8-2.6-2.2-2.6c-1.4,0-2.2,1.3-2.2,2.6S54.1,186.8,55.6,186.8z"/>
	<path class="st4" d="M63.7,187h-0.4v-1.2l0,0c-0.3,0.8-1.1,1.4-2.1,1.4c-2,0-2-1.6-2-2.3v-3.6h0.4v3.6c0,0.6,0.1,1.9,1.6,1.9
		c1.3,0,2.1-1,2.1-2.4v-3.1h0.4L63.7,187z"/>
	<path class="st4" d="M72.4,183.1c-0.1-1-1-1.6-1.9-1.5c0,0,0,0,0,0c-1.4,0-2.2,1.3-2.2,2.6c0,1.6,0.7,2.7,2.2,2.7
		c1,0,1.9-0.8,2-1.8h0.4c-0.1,1.2-1.2,2.2-2.4,2.2c-1.9,0-2.6-1.5-2.6-3.1s0.9-2.9,2.6-2.9c1.2-0.2,2.2,0.7,2.4,1.8c0,0,0,0.1,0,0.1
		L72.4,183.1z"/>
	<path class="st4" d="M74.3,179.1v3.5l0,0c0.3-0.8,1.2-1.4,2.1-1.4c2,0,2,1.6,2,2.3v3.5H78v-3.6c0-0.6-0.1-1.9-1.6-1.9
		c-1.3,0-2.1,1-2.1,2.4v3.1h-0.4v-8L74.3,179.1z"/>
	<path class="st4" d="M82.1,181.2c1.7,0,2.6,1.4,2.6,3s-1,3-2.6,3c-1.7,0-2.6-1.4-2.6-3S80.4,181.2,82.1,181.2z M82.1,186.8
		c1.4,0,2.2-1.3,2.2-2.6s-0.8-2.6-2.2-2.6c-1.4,0-2.2,1.3-2.2,2.6S80.6,186.8,82.1,186.8z"/>
	<path class="st4" d="M88,181.2c1.7,0,2.6,1.4,2.6,3s-1,3-2.6,3s-2.6-1.4-2.6-3S86.4,181.2,88,181.2z M88,186.8
		c1.4,0,2.2-1.3,2.2-2.6s-0.8-2.6-2.2-2.6c-1.4,0-2.2,1.3-2.2,2.6S86.6,186.8,88,186.8z"/>
	<path class="st4" d="M91.9,185.1c0,1,0.9,1.7,1.8,1.7c0,0,0,0,0.1,0c0.8,0,1.8-0.2,1.8-1.2s-1-1.1-2-1.3c-1-0.2-2-0.5-2-1.6
		s1.1-1.5,2.1-1.5c1.2,0,2.1,0.5,2.1,1.8h-0.4c0-1-0.7-1.5-1.7-1.5c-0.8,0-1.7,0.3-1.7,1.1s1,1.1,1.9,1.3c1.1,0.2,2,0.5,2,1.7
		c0,1.2-1.2,1.6-2.2,1.6c-1.1,0.1-2.2-0.7-2.3-1.8c0-0.1,0-0.1,0-0.2L91.9,185.1z"/>
	<path class="st4" d="M97.2,184.2c0,1.4,0.7,2.6,2.1,2.6c1,0,1.9-0.7,2.1-1.7h0.4c-0.1,1.3-1.2,2.2-2.5,2.1c-1.7,0-2.6-1.3-2.5-2.9
		c0-1.6,0.8-3.1,2.5-3.1s2.6,1.4,2.5,3.1H97.2z M101.4,183.9c0.1-1.2-0.8-2.2-2-2.3c0,0,0,0-0.1,0c-1.2,0.1-2.1,1.1-2.1,2.3H101.4z"
		/>
	<path class="st4" d="M111.4,186.6v0.4H106v-8h5.4v0.4h-4.9v3.2h4.6v0.4h-4.6v3.5L111.4,186.6z"/>
	<path class="st4" d="M111.6,179.1h0.6l2.5,3.5l2.6-3.5h0.6L115,183l3,4.1h-0.6l-2.7-3.7L112,187h-0.6l3-4.1L111.6,179.1z"/>
	<path class="st4" d="M118.5,179.1h0.5v8h-0.5V179.1z"/>
	<path class="st4" d="M119.5,179.5v-0.4h6.1v0.4h-2.8v7.5h-0.5v-7.5H119.5z"/>
	<path class="st4" d="M125.5,187v-1.1h0.6v1.1H125.5z"/>
</g>
<g>
	<path class="st5" d="M18.7,77.4h1.5v22.8h13.7v1.3H18.7L18.7,77.4z"/>
	<path class="st5" d="M46,102.1c-7.2,0-11.5-5.6-11.5-12.6c0-7,4.2-12.6,11.5-12.6s11.4,5.6,11.4,12.6
		C57.4,96.5,53.1,102.1,46,102.1z M46,100.8c6.3,0,10-5.2,10-11.3c0-6.2-3.7-11.3-10-11.3s-10,5.2-10,11.4
		C36,95.7,39.6,100.8,46,100.8z"/>
	<path class="st5" d="M69.3,77.4l9.5,24.1h-1.6l-3-7.7H62.7l-3.1,7.7H58l9.7-24.1H69.3z M73.8,92.5l-5.2-13.6h-0.1l-5.4,13.6H73.8z"
		/>
	<path class="st5" d="M80.6,77.4h7.9c8.6,0,11.1,5.9,11.1,12c0,6.8-3.5,12.1-11.2,12.1h-7.8L80.6,77.4z M82.1,100.3h6.5
		c4.5,0,9.6-2.5,9.6-10.8c0-9.9-6.3-10.7-9.9-10.7h-6.2L82.1,100.3z"/>
	<path class="st5" d="M103.1,77.4h1.5v24.1h-1.5V77.4z"/>
	<path class="st5" d="M108.8,77.4h1.9l15.2,22.1h0.1V77.4h1.5v24.1h-1.7l-15.3-22.3h-0.1v22.3h-1.5L108.8,77.4z"/>
	<path class="st5" d="M152.7,89.7v11.8h-1.3v-5.1h-0.1c-1.2,3.5-4.9,5.7-9.1,5.7c-7.3,0-11.3-5.6-11.3-12.5
		c0-6.9,4.1-12.8,11.4-12.8c5,0,9.2,3,10,8h-1.4c-1.1-4.2-4.2-6.8-8.6-6.8c-6.5,0-9.9,5.5-9.9,11.5c0,6.1,3.3,11.2,9.9,11.2
		c5.7,0,9.4-3.9,9.1-9.8h-8.9v-1.3L152.7,89.7z"/>
</g>
<g>
</g>
<g>
</g>
<g>
</g>
<g>
</g>
<g>
</g>
<g>
</g>
<g>
</g>
<g>
</g>
<g>
</g>
<g>
</g>
<g>
</g>
<g>
</g>
<g>
</g>
<g>
</g>
<g>
</g>
</svg>
