<svg xmlns="http://www.w3.org/2000/svg" xmlns:xlink="http://www.w3.org/1999/xlink" viewBox="0 0 63.4 20.5"><defs><clipPath id="a" transform="translate(-9.6 -10.1)"><rect x="31.4" y="10.3" width="46.7" height="19.94" fill="none"/></clipPath></defs><title>BACK</title><path d="M10.1,10.6V30.1H29.6V10.6H10.1Z" transform="translate(-9.6 -10.1)" fill="none" stroke="#fff" stroke-linecap="round" stroke-linejoin="round"/><g clip-path="url(#a)"><g style="isolation:isolate"><g style="isolation:isolate"><path d="M39.2,24.7V15.6h3.4a4.3,4.3,0,0,1,1.7.3,2.2,2.2,0,0,1,1,.9,2.2,2.2,0,0,1,.4,1.2,2.1,2.1,0,0,1-.3,1.1,2.3,2.3,0,0,1-1,.8,2.4,2.4,0,0,1,1.3.8,2.2,2.2,0,0,1,.4,1.4,2.7,2.7,0,0,1-.3,1.2,2.3,2.3,0,0,1-.7.8l-1,.5-1.5.2H39.2Zm1.2-5.3h3.1a1.3,1.3,0,0,0,.7-0.5,1.3,1.3,0,0,0,.2-0.8,1.5,1.5,0,0,0-.2-0.8,1.1,1.1,0,0,0-.6-0.5H40.4v2.8Zm0,4.2h3.1l0.7-.2,0.5-.5a1.6,1.6,0,0,0,.2-0.8,1.5,1.5,0,0,0-.3-0.9,1.4,1.4,0,0,0-.7-0.5l-1.3-.2H40.4v3.1Z" transform="translate(-9.6 -10.1)" fill="#fff"/><path d="M46.7,24.7l3.5-9.1h1.3l3.7,9.1H53.9L52.8,22H49l-1,2.8H46.7ZM49.4,21h3.1l-1-2.5-0.6-1.9a11.6,11.6,0,0,1-.5,1.7Z" transform="translate(-9.6 -10.1)" fill="#fff"/><path d="M62.8,21.5L64,21.8a4.1,4.1,0,0,1-1.4,2.3,3.8,3.8,0,0,1-2.4.8,4.3,4.3,0,0,1-2.4-.6,3.7,3.7,0,0,1-1.4-1.7,6.2,6.2,0,0,1-.5-2.4,5.4,5.4,0,0,1,.5-2.5A3.7,3.7,0,0,1,58,16a4.5,4.5,0,0,1,2.2-.6,3.8,3.8,0,0,1,2.3.7,3.6,3.6,0,0,1,1.3,2l-1.2.3a2.8,2.8,0,0,0-.9-1.5,2.5,2.5,0,0,0-1.5-.5,3,3,0,0,0-1.8.5,2.7,2.7,0,0,0-1,1.4,5.4,5.4,0,0,0-.3,1.8,5.6,5.6,0,0,0,.3,2,2.5,2.5,0,0,0,1.1,1.3,3,3,0,0,0,1.6.4,2.6,2.6,0,0,0,1.7-.6A3,3,0,0,0,62.8,21.5Z" transform="translate(-9.6 -10.1)" fill="#fff"/><path d="M65.4,24.7V15.6h1.2v4.5l4.5-4.5h1.6L69,19.3l4,5.4H71.4l-3.3-4.6-1.5,1.5v3.2H65.4Z" transform="translate(-9.6 -10.1)" fill="#fff"/></g></g></g><path d="M22.3,15.2l-5.4,5.3,5.4,5.3" transform="translate(-9.6 -10.1)" fill="none" stroke="#fff" stroke-linecap="round" stroke-linejoin="round" stroke-width="2"/></svg>