<svg id="Layer_1" data-name="Layer 1" xmlns="http://www.w3.org/2000/svg" xmlns:xlink="http://www.w3.org/1999/xlink" viewBox="0 0 1328.25 17.5">
  <defs>
    <linearGradient id="linear-gradient" x1="862.84" y1="5400.69" x2="736.95" y2="6824.06" gradientTransform="translate(-96.92 -5895.21) scale(0.93 1)" gradientUnits="userSpaceOnUse">
      <stop offset="0" stop-color="#ccc"/>
      <stop offset="1" stop-color="#fff"/>
    </linearGradient>
  </defs>
  <title>player_seek_bg</title>
  <g>
    <path d="M1104.81,7.29c0,2.78-1.69,4.25-3.75,4.25s-3.64-1.65-3.64-4.1,1.6-4.24,3.76-4.24S1104.81,4.89,1104.81,7.29Zm-6.27.13c0,1.73.94,3.27,2.58,3.27s2.59-1.52,2.59-3.36c0-1.6-.84-3.28-2.58-3.28S1098.54,5.64,1098.54,7.42Z" fill="#fff"/>
    <path d="M1106.14,7.52c0-.74,0-1.34-.05-1.89h1v1h0a2.28,2.28,0,0,1,2.06-1.12c1.4,0,2.46,1.18,2.46,3,0,2.08-1.27,3.11-2.64,3.11a2,2,0,0,1-1.79-.91h0v3.11h-1Zm1,1.55a1.55,1.55,0,0,0,0,.43,1.63,1.63,0,0,0,1.58,1.24c1.12,0,1.76-.91,1.76-2.25,0-1.16-.61-2.15-1.72-2.15a1.69,1.69,0,0,0-1.6,1.3,2,2,0,0,0-.07.43Z" fill="#fff"/>
    <path d="M1114.24,3.94V5.61h1.51v.8h-1.51V9.52c0,.72.2,1.13.79,1.13a2.48,2.48,0,0,0,.61-.07v.79a2.72,2.72,0,0,1-.94.14,1.44,1.44,0,0,1-1.14-.44,2.14,2.14,0,0,1-.41-1.51V6.41h-.9v-.8h.9V4.22Z" fill="#fff"/>
    <path d="M1118.11,4a.62.62,0,0,1-.6.64h-.07a.63.63,0,0,1-.64-.62h0a.64.64,0,0,1,.62-.66h0a.62.62,0,0,1,.65.59h0Zm-1.17,7.43V5.61h1v5.8Z" fill="#fff"/>
    <path d="M1119.74,7.18V5.61h.92v.91h0a2,2,0,0,1,1.83-1.06,1.71,1.71,0,0,1,1.64,1.16h0a2.27,2.27,0,0,1,.65-.76,2,2,0,0,1,1.28-.4c.77,0,1.91.5,1.91,2.51v3.42h-1V8.13c0-1.12-.41-1.79-1.26-1.79a1.37,1.37,0,0,0-1.25,1,1.89,1.89,0,0,0-.08.53v3.58h-1V7.93c0-.92-.41-1.59-1.21-1.59a1.46,1.46,0,0,0-1.31,1,1.53,1.53,0,0,0-.08.52v3.5h-1Z" fill="#fff"/>
    <path d="M1130.93,4a.62.62,0,0,1-.6.64h-.08a.62.62,0,0,1-.63-.61h0a.64.64,0,0,1,.62-.66h0a.63.63,0,0,1,.65.61h0Zm-1.18,7.43V5.61h1.06v5.8Z" fill="#fff"/>
    <path d="M1131.9,10.8l2.63-3.42.75-.9h-3.14V5.63h4.42v.66L1134,9.64c-.24.32-.48.61-.74.91h3.39v.84h-4.71Z" fill="#fff"/>
    <path d="M1138.2,8.7a1.86,1.86,0,0,0,1.71,2h.29a4,4,0,0,0,1.61-.3l.18.75a4.73,4.73,0,0,1-1.93.36A2.69,2.69,0,0,1,1137.2,9a2.94,2.94,0,0,1,0-.42c0-1.76,1-3.13,2.72-3.13a2.46,2.46,0,0,1,2.42,2.48v.25a4,4,0,0,1,0,.49Zm3.09-.75a1.5,1.5,0,0,0-1.25-1.7h-.21A1.74,1.74,0,0,0,1138.21,8Z" fill="#fff"/>
    <path d="M1148.64,2.9v8.5h-.94v-1h0a2.15,2.15,0,0,1-2,1.13c-1.41,0-2.49-1.18-2.49-3a2.84,2.84,0,0,1,2.55-3.1h.06a2,2,0,0,1,1.75.88h0V2.91ZM1147.58,8a1.62,1.62,0,0,0,0-.44,1.53,1.53,0,0,0-1.52-1.23c-1.09,0-1.74,1-1.74,2.25s.58,2.14,1.72,2.14A1.67,1.67,0,0,0,1147.63,9Z" fill="#fff"/>
    <path d="M1153,11.41v-5h-.81v-.8h.81V5.33a2.75,2.75,0,0,1,.67-2,2.08,2.08,0,0,1,1.42-.54,2.52,2.52,0,0,1,.9.17l-.15.82a1.54,1.54,0,0,0-.67-.13c-.9,0-1.12.79-1.12,1.68v.31h1.4v.8h-1.4v5Z" fill="#fff"/>
    <path d="M1161.54,8.46a2.82,2.82,0,0,1-2.54,3.06h-.32a2.77,2.77,0,0,1-2.8-2.72V8.52a2.83,2.83,0,0,1,2.57-3.07h.31a2.75,2.75,0,0,1,2.81,2.69h0C1161.55,8.25,1161.55,8.36,1161.54,8.46Zm-4.61.06c0,1.27.73,2.23,1.76,2.23s1.77-.94,1.77-2.25c0-1-.5-2.23-1.74-2.23s-1.79,1.15-1.79,2.26Z" fill="#fff"/>
    <path d="M1162.87,7.42V5.61h.93V6.75h0a1.73,1.73,0,0,1,1.61-1.27h.3v1a1.09,1.09,0,0,0-.36,0A1.48,1.48,0,0,0,1164,7.83a4,4,0,0,0,0,.49v3.09h-1Z" fill="#fff"/>
  </g>
  <g>
    <g id="trackbarbg_0_Layer0_0_FILL" data-name="trackbarbg 0 Layer0 0 FILL">
      <path d="M1323,16.75q4.5,0,4.5-4.85V5.6c0-3.24-1.5-4.85-4.5-4.85H5.25C2.25.75.75,2.36.75,5.6v6.3q0,4.85,4.5,4.85Z" fill="url(#linear-gradient)"/>
    </g>
    <path id="trackbarbg_0_Layer0_0_1_STROKES" data-name="trackbarbg 0 Layer0 0 1 STROKES" d="M1323,.75c3,0,4.5,1.61,4.5,4.85v6.3q0,4.85-4.5,4.85H5.25q-4.5,0-4.5-4.85V5.6C.75,2.36,2.25.75,5.25.75Z" fill="none" stroke="gray" stroke-linecap="round" stroke-linejoin="round" stroke-width="1.5"/>
  </g>
  <g>
    <path id="Layer0_0_1_STROKES" data-name="Layer0 0 1 STROKES" d="M1323.17,9H4.17" fill="none" stroke="#fff" stroke-linecap="square" stroke-linejoin="round" stroke-width="0.5"/>
    <path id="Layer0_0_1_STROKES-2" data-name="Layer0 0 1 STROKES-2" d="M1323.17,8.52H4.17" fill="none" stroke="#000" stroke-linecap="square" stroke-linejoin="round" stroke-width="0.5"/>
  </g>
</svg>
